<svg width="16" height="17" viewBox="0 0 16 17" fill="none" xmlns="http://www.w3.org/2000/svg">
<circle cx="8" cy="8.5" r="6.5" fill="white" stroke="#D2D2D2"/>
<path d="M8 6.4165C7.82417 6.4165 7.67611 6.35623 7.55583 6.23567C7.43528 6.11539 7.375 5.96734 7.375 5.7915C7.375 5.61567 7.43528 5.46762 7.55583 5.34734C7.67611 5.22678 7.82417 5.1665 8 5.1665C8.17583 5.1665 8.32389 5.22678 8.44417 5.34734C8.56472 5.46762 8.625 5.61567 8.625 5.7915C8.625 5.96734 8.56472 6.11539 8.44417 6.23567C8.32389 6.35623 8.17583 6.4165 8 6.4165ZM8.00083 11.8332C7.88556 11.8332 7.78708 11.7926 7.70542 11.7115C7.62403 11.6307 7.58333 11.5323 7.58333 11.4165V7.98734C7.58333 7.8715 7.62375 7.77289 7.70458 7.6915C7.78542 7.61095 7.88361 7.57067 7.99917 7.57067C8.11444 7.57067 8.21292 7.61095 8.29458 7.6915C8.37597 7.77289 8.41667 7.8715 8.41667 7.98734V11.4165C8.41667 11.5323 8.37625 11.6307 8.29542 11.7115C8.21458 11.7926 8.11639 11.8332 8.00083 11.8332Z" fill="#D2D2D2"/>
</svg>
